<?xml version="1.0" standalone="no"?>
<!DOCTYPE svg PUBLIC "-//W3C//DTD SVG 20010904//EN"
 "http://www.w3.org/TR/2001/REC-SVG-20010904/DTD/svg10.dtd">
<svg version="1.0" xmlns="http://www.w3.org/2000/svg"
 width="44.000000pt" height="30.000000pt" viewBox="0 0 44.000000 30.000000"
 preserveAspectRatio="xMidYMid meet">

<g transform="translate(0.000000,30.000000) scale(0.100000,-0.100000)"
fill="#000000" stroke="none">
<path d="M120 195 c0 -31 7 -72 16 -90 18 -39 74 -70 110 -61 l25 7 -19 24
c-11 14 -23 45 -26 70 -8 52 -39 91 -78 101 l-28 6 0 -57z"/>
<path d="M265 174 c-19 -19 -13 -58 13 -87 16 -18 17 -18 34 3 44 54 1 131
-47 84z"/>
</g>
</svg>
