<svg id="SvgjsSvg1001" width="288" height="288" xmlns="http://www.w3.org/2000/svg" version="1.1" xmlns:xlink="http://www.w3.org/1999/xlink" xmlns:svgjs="http://svgjs.com/svgjs"><defs id="SvgjsDefs1002"></defs><g id="SvgjsG1008"><svg xmlns="http://www.w3.org/2000/svg" width="288" height="288" version="1.0" viewBox="0 0 44 30"><g transform="matrix(.1 0 0 -.1 0 30)" fill="#5a4ad1" class="color000 svgShape"><path d="M120 195c0-31 7-72 16-90 18-39 74-70 110-61l25 7-19 24c-11 14-23 45-26 70-8 52-39 91-78 101l-28 6 0-57zM265 174c-19-19-13-58 13-87 16-18 17-18 34 3 44 54 1 131-47 84z" fill="#5a4ad1" class="color000 svgShape"></path></g></svg></g></svg>